HIERARCHY
ROOT Hips
{
  OFFSET -331.093 83.8371 -317.828
  CHANNELS 6 Xposition Yposition Zposition Zrotation Xrotation Yrotation
  JOINT LeftUpLeg
  {
    OFFSET 8.64259 1.95398 -2.38835
    CHANNELS 3 Zrotation Xrotation Yrotation
    JOINT LeftLeg
    {
      OFFSET 43.7702 0 0
      CHANNELS 3 Zrotation Xrotation Yrotation
      JOINT LeftFoot
      {
        OFFSET 40.6238 0 0
        CHANNELS 3 Zrotation Xrotation Yrotation
        JOINT LeftToeBase
        {
          OFFSET 12.7242 0 0
          CHANNELS 3 Zrotation Xrotation Yrotation
          End Site
          {
            OFFSET 0 0 0
          }
        }
      }
    }
  }
  JOINT RightUpLeg
  {
    OFFSET -8.2249 1.95398 -2.59336
    CHANNELS 3 Zrotation Xrotation Yrotation
    JOINT RightLeg
    {
      OFFSET 43.5653 0 0
      CHANNELS 3 Zrotation Xrotation Yrotation
      JOINT RightFoot
      {
        OFFSET 40.6238 0 0
        CHANNELS 3 Zrotation Xrotation Yrotation
        JOINT RightToeBase
        {
          OFFSET 12.7242 0 0
          CHANNELS 3 Zrotation Xrotation Yrotation
          End Site
          {
            OFFSET 0 0 0
          }
        }
      }
    }
  }
  JOINT Spine
  {
    OFFSET 0.165834 0.87714 6.61349
    CHANNELS 3 Zrotation Xrotation Yrotation
    JOINT Spine1
    {
      OFFSET 7.38963 1.71661e-005 0
      CHANNELS 3 Zrotation Xrotation Yrotation
      JOINT Spine2
      {
        OFFSET 11.9445 1.14441e-005 0
        CHANNELS 3 Zrotation Xrotation Yrotation
        JOINT Spine3
        {
          OFFSET 14.7254 4.19617e-005 0
          CHANNELS 3 Zrotation Xrotation Yrotation
          JOINT Spine4
          {
            OFFSET 10.9679 0 0
            CHANNELS 3 Zrotation Xrotation Yrotation
            JOINT RightShoulder
            {
              OFFSET 2.46616 -1.6653 3.69651
              CHANNELS 3 Zrotation Xrotation Yrotation
              JOINT RightArm
              {
                OFFSET 13.0012 0 0
                CHANNELS 3 Zrotation Xrotation Yrotation
                JOINT RightForeArm
                {
                  OFFSET 28.7848 1.62311e-005 0
                  CHANNELS 3 Zrotation Xrotation Yrotation
                  JOINT RightHand
                  {
                    OFFSET 26.5688 1.62095e-005 0
                    CHANNELS 3 Zrotation Xrotation Yrotation
                    End Site
                    {
                      OFFSET 0 0 0
                    }
                  }
                }
              }
            }
            JOINT LeftShoulder
            {
              OFFSET 2.38034 -1.29275 -3.7523
              CHANNELS 3 Zrotation Xrotation Yrotation
              JOINT LeftArm
              {
                OFFSET 16.3182 6.07031e-005 0
                CHANNELS 3 Zrotation Xrotation Yrotation
                JOINT LeftForeArm
                {
                  OFFSET 27.0901 0 0
                  CHANNELS 3 Zrotation Xrotation Yrotation
                  JOINT LeftHand
                  {
                    OFFSET 24.5451 1.51738e-005 0
                    CHANNELS 3 Zrotation Xrotation Yrotation
                    End Site
                    {
                      OFFSET 0 0 0
                    }
                  }
                }
              }
            }
            JOINT Neck
            {
              OFFSET 5.0226 -0.0266342 0
              CHANNELS 3 Zrotation Xrotation Yrotation
              JOINT Head
              {
                OFFSET 6.69364 2.86102e-005 0
                CHANNELS 3 Zrotation Xrotation Yrotation
                End Site
                {
                  OFFSET 0 0 0
                }
              }
            }
          }
        }
      }
    }
  }
}
MOTION
Frames:	10
Frame Time:	0.0416667
-83.8526 96.1156 -94.1483 38.4394 -89.0049 37.8216 -168.455 15.8001 87.0115 -34.4785 -6.28347 -6.16344 71.0528 12.0022 8.31124 36.2688 8.89402 9.51984 171.14 12.6582 80.5082 -21.242 -17.4186 -5.31297 65.9905 -2.67887 -1.51913 42.7923 -1.22965 -4.00811 -0.328849 7.83411 -90.7507 11.1975 -1.00348 -1.39585 -0.47373 -1.06394 -1.35033 -23.004 -0.537648 -1.63284 -2.99136 -0.537647 -1.63284 92.594 -38.1946 -98.9811 21.8518 -25.9484 -17.3633 -15.7458 14.2586 -118.08 -22.4361 -0.547483 -2.40148 -96.0502 -47.1529 69.3646 -28.9976 7.5929 7.95655 10.6054 3.51138 -60.1668 13.6992 0.529694 0.0210008 -13.882 2.59463 -3.36861 12.7248 4.12142 11.4515 
-85.2823 96.4596 -94.2043 27.5561 -89.2829 27.0157 -169.15 15.31 87.7131 -32.6541 -4.42253 -5.60947 67.6175 11.166 11.7717 37.6368 9.74183 8.47879 171.029 11.7516 81.2895 -19.8264 -17.5298 -4.95684 66.2137 -2.88501 -1.6119 42.2172 -1.17751 -3.92205 -0.325422 7.81405 -90.6836 11.2388 -0.965679 -1.26561 -0.43236 -1.02044 -1.22189 -22.9637 -0.540717 -1.49728 -2.95105 -0.540713 -1.49728 92.358 -38.7473 -99.2613 21.6132 -25.3884 -16.9075 -15.7058 14.2482 -117.926 -22.4907 -0.544333 -2.42519 -96.2378 -47.3159 69.1363 -28.3245 7.53016 7.74196 10.7937 3.81588 -59.8373 14.1515 0.608155 0.439701 -14.0098 2.76922 -2.88457 12.7643 4.16159 10.4799 
-86.5629 96.7597 -94.2257 2.59196 -89.5117 1.96167 -169.353 15.0452 88.4493 -32.1046 -5.13212 -5.20796 68.0738 10.2686 9.53156 34.3849 6.42238 7.21219 170.863 11.3039 81.7818 -19.2908 -17.9523 -4.62081 66.4957 -3.04582 -1.69507 41.753 -1.18434 -4.06222 -0.328093 7.81419 -90.616 11.2396 -0.939547 -1.13354 -0.431498 -0.988522 -1.0911 -22.9639 -0.555468 -1.36348 -2.9512 -0.555469 -1.36348 92.2215 -39.101 -99.4127 21.3673 -25.0494 -16.8421 -15.3407 13.9378 -118.019 -22.5369 -0.533296 -2.48599 -96.1943 -47.542 69.2761 -27.533 7.63107 7.10752 10.7876 4.20093 -58.9865 14.7512 0.644944 0.512457 -13.4633 2.81275 -2.32483 12.1152 4.06195 9.81235 
-87.7665 97.0864 -94.2761 -14.7211 -89.6684 -15.5867 -169.685 14.7624 89.0839 -31.6776 -6.71781 -4.74767 68.5533 8.42134 5.86858 33.3554 5.40431 6.77359 170.679 10.7408 82.1269 -18.5907 -18.2278 -4.34202 66.6038 -3.15789 -1.74759 41.7721 -1.33166 -4.67905 -0.348914 7.81762 -90.5229 11.234 -0.937634 -0.948525 -0.436968 -0.978459 -0.906353 -22.9707 -0.609235 -1.18645 -2.95804 -0.609237 -1.18645 92.1057 -39.5462 -99.5037 21.159 -24.9731 -17.0909 -15.2168 13.7568 -117.801 -22.3846 -0.437422 -2.97251 -96.3418 -47.6746 69.0991 -26.6488 7.60365 6.83668 10.2387 4.04415 -58.294 15.0864 0.66886 0.572585 -13.3597 2.91568 -2.02803 12.1915 4.12521 9.49024 
-88.9102 97.3027 -94.3573 -66.2085 -89.3565 -67.2259 -169.598 14.3659 89.7368 -30.937 -7.31946 -4.63642 68.9639 7.83804 4.20645 31.4763 3.73468 6.51051 170.902 10.4062 82.6855 -18.1456 -18.3018 -4.32957 66.9393 -3.35197 -1.84094 40.6592 -1.28159 -4.75926 -0.320601 7.79824 -90.458 11.2737 -0.851198 -0.827402 -0.397182 -0.886788 -0.789139 -22.9314 -0.563192 -1.04494 -2.91873 -0.5632 -1.04496 91.9772 -39.6058 -99.7123 21.7187 -24.7809 -16.7746 -15.2334 13.9686 -117.724 -21.2548 -0.477416 -2.63795 -96.3464 -47.7107 69.1042 -26.1788 7.24228 6.7489 10.3193 4.30576 -57.9456 14.865 0.701313 0.850778 -13.1513 2.96707 -1.37925 11.7265 4.03664 8.75725 
-89.8917 97.5198 -94.3723 -73.2531 -89.2029 -74.3765 -169.596 13.8899 90.2737 -29.7655 -7.43141 -4.52105 68.0644 7.24575 4.19172 31.6257 3.53079 5.32375 171.109 10.2384 83.1801 -18.0061 -18.2037 -4.31889 66.8067 -3.23782 -1.78762 39.4647 -1.13758 -4.4253 -0.3408 7.78463 -90.3929 11.3016 -0.861147 -0.696535 -0.369257 -0.89097 -0.657963 -22.9042 -0.612015 -0.923139 -2.89157 -0.612011 -0.923135 92.0207 -39.4452 -99.6771 22.2314 -24.9919 -17.0562 -15.2382 13.5428 -117.555 -22.1236 -0.544743 -2.37513 -95.7652 -47.4303 69.8836 -26.1571 6.9084 6.67399 10.6476 4.58316 -57.8868 14.5951 0.695935 0.897809 -12.2711 3.15868 -0.892851 10.6513 4.0759 8.19653 
-90.7091 97.6084 -94.3827 -84.278 -88.9602 -85.7001 -169.673 13.1926 90.4813 -28.519 -7.34217 -4.47402 67.301 6.96538 4.64128 31.985 3.82258 5.30973 171.074 10.2567 83.3062 -18.181 -18.3264 -4.20238 66.9273 -3.30723 -1.82484 38.3369 -0.73877 -2.80114 -0.317907 7.77136 -90.3545 11.329 -0.797764 -0.626277 -0.341851 -0.824562 -0.590572 -22.877 -0.572677 -0.837092 -2.86432 -0.572672 -0.837087 92.0836 -39.3678 -99.5871 22.1343 -24.9002 -17.1033 -14.7599 13.4085 -117.419 -21.5867 -0.488221 -2.6114 -96.2013 -47.8016 69.351 -25.415 6.57563 6.59108 10.3245 4.47715 -57.5738 14.1092 0.637791 0.657508 -12.4195 2.92824 -0.426341 10.7096 3.78136 7.71648 
-91.4955 97.629 -94.4111 -84.7642 -88.5817 -86.3098 -169.564 12.4811 90.717 -27.0076 -7.51764 -4.5238 67.3602 7.67586 5.61943 30.7786 2.62057 4.5085 171.407 10.6042 83.6873 -18.8407 -18.3664 -4.26052 67.1186 -3.37959 -1.86735 36.3809 -0.508485 -2.01354 -0.296321 7.72739 -90.3355 11.4168 -0.746146 -0.592754 -0.254089 -0.771512 -0.559341 -22.7892 -0.533511 -0.789588 -2.7765 -0.53351 -0.789593 91.9957 -39.5469 -99.6952 22.0466 -24.8634 -16.8395 -14.6181 13.2975 -117.449 -21.5072 -0.405105 -3.05479 -96.5328 -48.3683 69.0429 -24.7447 6.11785 6.9116 10.4772 4.5759 -57.8268 14.7683 0.715543 0.972942 -12.6292 2.93485 -0.132604 10.7016 3.79276 7.8484 
-92.0763 97.7773 -94.4023 -89.4801 -88.3517 -91.4475 -169.857 11.878 90.7095 -26.2698 -8.85944 -4.34333 67.2962 6.54379 3.77968 30.6706 2.69984 5.15415 171.503 10.6588 83.6528 -19.0721 -18.4294 -4.37965 66.8166 -3.24536 -1.80075 35.702 -0.367074 -1.36568 -0.331364 7.75724 -90.2149 11.3583 -0.75953 -0.351734 -0.312503 -0.774266 -0.317974 -22.8486 -0.618717 -0.563739 -2.83591 -0.618707 -0.563751 91.6072 -39.7134 -100.328 21.9119 -24.7472 -17.6249 -14.6677 13.1367 -117.163 -22.176 -0.603993 -2.06671 -95.565 -47.5672 70.2274 -24.8234 6.05907 6.37042 10.5568 4.73277 -57.5351 14.4326 0.66124 0.716105 -11.6783 3.20828 -0.284597 9.85194 3.9658 7.39975 
-92.6064 97.7464 -94.4194 -90.1911 -88.1169 -92.4291 -169.853 10.9573 90.6497 -24.2638 -7.83479 -4.48649 65.9986 7.62687 7.10033 31.5537 2.89714 3.20102 171.63 11.0889 83.7236 -19.9209 -18.4516 -4.39884 67.2687 -3.43461 -1.90419 35.0045 -0.203605 -0.546529 -0.299689 7.73425 -90.2373 11.4044 -0.707003 -0.40125 -0.266446 -0.723973 -0.369754 -22.8022 -0.553726 -0.595189 -2.78949 -0.553721 -0.595185 91.7939 -39.512 -100.055 21.5817 -24.7348 -17.6912 -13.9671 12.9865 -117.303 -21.7733 -0.755822 -1.19251 -96.2976 -48.3405 69.3875 -24.3485 5.4241 6.42895 10.3444 4.58408 -57.528 14.7666 0.713125 0.95963 -11.4101 2.89083 0.111731 9.17042 3.57626 7.24684 
